<?xml version="1.0" encoding="utf-8"?>
<!-- Generator: Adobe Illustrator 15.1.0, SVG Export Plug-In . SVG Version: 6.00 Build 0)  -->
<!DOCTYPE svg PUBLIC "-//W3C//DTD SVG 1.1//EN" "http://www.w3.org/Graphics/SVG/1.1/DTD/svg11.dtd">
<svg version="1.1" id="Слой_1" xmlns="http://www.w3.org/2000/svg" xmlns:xlink="http://www.w3.org/1999/xlink" x="0px" y="0px"
	 width="270px" height="61px" viewBox="0 0 270 61" enable-background="new 0 0 270 61" xml:space="preserve">
<g>
	<g>
		<path fill="#008F54" d="M47.808,21.164c-0.572,0-1.187-0.107-1.839-0.318c-0.654-0.213-1.255-0.629-1.803-1.251
			c-0.548-0.622-1.002-1.505-1.362-2.649c-0.359-1.145-0.539-2.657-0.539-4.538c0-0.328,0.012-0.769,0.036-1.325
			c0.025-0.556,0.091-1.157,0.197-1.802c0.106-0.646,0.274-1.305,0.502-1.976c0.229-0.669,0.549-1.271,0.958-1.802
			c0.409-0.531,0.927-0.969,1.558-1.313c0.629-0.343,1.394-0.514,2.293-0.514c0.556,0,1.156,0.103,1.803,0.307
			c0.646,0.205,1.247,0.618,1.803,1.238c0.556,0.623,1.019,1.505,1.386,2.65s0.552,2.657,0.552,4.538s-0.185,3.393-0.552,4.538
			c-0.368,1.144-0.83,2.032-1.386,2.661c-0.556,0.63-1.157,1.046-1.803,1.251C48.964,21.062,48.364,21.164,47.808,21.164z
			 M47.808,19.521c0.866,0,1.529-0.262,1.988-0.785c0.457-0.523,0.784-1.161,0.98-1.913c0.197-0.752,0.307-1.533,0.332-2.342
			c0.024-0.811,0.035-1.5,0.035-2.073c0-0.834-0.028-1.672-0.085-2.515C51,9.051,50.861,8.291,50.641,7.612
			c-0.221-0.679-0.552-1.23-0.994-1.656c-0.441-0.425-1.054-0.638-1.839-0.638c-0.85,0-1.505,0.262-1.962,0.784
			c-0.458,0.524-0.79,1.162-0.993,1.914c-0.205,0.752-0.32,1.53-0.344,2.331c-0.024,0.801-0.037,1.487-0.037,2.06
			c0,0.572,0.013,1.262,0.037,2.073c0.024,0.81,0.135,1.59,0.332,2.342s0.522,1.39,0.98,1.913
			C46.278,19.259,46.941,19.521,47.808,19.521z"/>
		<path fill="#008F54" d="M60.367,20.526c0,0.082-0.017,0.152-0.049,0.209c-0.033,0.056-0.115,0.086-0.246,0.086h-1.276
			c-0.13,0-0.212-0.03-0.245-0.086c-0.033-0.057-0.049-0.127-0.049-0.209v-9.885h-3.09c-0.131,0-0.213-0.027-0.246-0.085
			c-0.033-0.057-0.049-0.127-0.049-0.208V9.341c0-0.13,0.029-0.211,0.086-0.244c0.058-0.034,0.127-0.049,0.209-0.049h8.389
			c0.196,0,0.29,0.054,0.282,0.159c-0.008,0.107-0.021,0.176-0.037,0.208l-0.318,0.956c-0.034,0.083-0.074,0.148-0.123,0.197
			c-0.05,0.049-0.139,0.074-0.271,0.074h-2.967V20.526z"/>
		<path fill="#008F54" d="M67.995,20.625c0,0.016-0.013,0.053-0.037,0.11c-0.025,0.056-0.103,0.086-0.233,0.086H66.4
			c-0.131,0-0.208-0.03-0.233-0.086c-0.024-0.057-0.037-0.094-0.037-0.11V9.341c0-0.164,0.057-0.261,0.171-0.293l0.491-0.123
			l0.834-0.197c0.032-0.015,0.089-0.023,0.171-0.023h0.024c0.114,0,0.172,0.065,0.172,0.196v0.024v5.028h1.054
			c0.442,0,0.777-0.105,1.006-0.318s0.4-0.548,0.515-1.007l0.318-1.274c0.115-0.441,0.282-0.896,0.502-1.362
			c0.221-0.466,0.602-0.814,1.142-1.043c0.162-0.064,0.368-0.122,0.613-0.171c0.246-0.05,0.45-0.073,0.613-0.073
			c0.065,0,0.127,0.011,0.184,0.036C74,8.765,74.044,8.818,74.078,8.9l0.27,1.103c0.032,0.132,0.008,0.209-0.074,0.234
			c-0.081,0.025-0.163,0.045-0.245,0.062l-0.343,0.049c-0.131,0.032-0.262,0.068-0.393,0.109c-0.132,0.042-0.253,0.135-0.369,0.282
			c-0.033,0.033-0.077,0.114-0.134,0.245c-0.058,0.131-0.135,0.369-0.233,0.711l-0.27,0.981c-0.083,0.328-0.231,0.687-0.442,1.079
			c-0.212,0.392-0.605,0.679-1.178,0.858c0.556,0.147,0.944,0.389,1.165,0.723c0.221,0.335,0.372,0.618,0.455,0.847l0.76,2.355
			c0.032,0.098,0.085,0.217,0.16,0.354c0.073,0.141,0.15,0.25,0.232,0.331c0.115,0.099,0.351,0.181,0.711,0.246l0.294,0.05
			c0.115,0.016,0.204,0.037,0.27,0.061c0.064,0.025,0.073,0.119,0.025,0.282l-0.319,1.104c-0.033,0.099-0.083,0.155-0.148,0.172
			c-0.065,0.017-0.132,0.025-0.196,0.025c-0.376,0-0.687-0.025-0.932-0.074c-0.245-0.047-0.434-0.106-0.564-0.171
			c-0.507-0.212-0.842-0.523-1.005-0.932c-0.164-0.41-0.328-0.9-0.491-1.472l-0.49-1.742c-0.164-0.573-0.364-0.932-0.602-1.079
			c-0.237-0.148-0.542-0.222-0.919-0.222h-1.08V20.625z"/>
		<path fill="#008F54" d="M77.342,12.235c0-0.261-0.024-0.58-0.073-0.956s-0.213-0.818-0.491-1.325
			c-0.115-0.18-0.171-0.294-0.171-0.343c0-0.064,0.012-0.105,0.036-0.122c0.024-0.016,0.053-0.033,0.086-0.049l1.055-0.662
			c0.065-0.033,0.131-0.053,0.196-0.062c0.064-0.007,0.139,0.029,0.22,0.111c0.148,0.146,0.278,0.343,0.393,0.588
			c0.115,0.246,0.205,0.491,0.27,0.737l0.195-0.148c0.344-0.26,0.794-0.542,1.35-0.846c0.556-0.302,1.177-0.453,1.865-0.453
			c0.31,0,0.694,0.061,1.153,0.184c0.457,0.123,0.898,0.397,1.325,0.821c0.424,0.426,0.789,1.043,1.09,1.853
			c0.303,0.809,0.455,1.91,0.455,3.299s-0.16,2.501-0.479,3.335c-0.319,0.833-0.703,1.471-1.152,1.913
			c-0.451,0.442-0.929,0.728-1.436,0.858c-0.507,0.131-0.956,0.197-1.349,0.197c-0.343,0-0.662-0.033-0.957-0.098
			c-0.293-0.066-0.555-0.147-0.785-0.245c-0.229-0.099-0.42-0.192-0.576-0.283c-0.156-0.089-0.274-0.159-0.356-0.209v5.005
			c0,0.032-0.008,0.08-0.023,0.147c-0.017,0.065-0.074,0.113-0.172,0.146l-1.178,0.294c-0.082,0.034-0.184,0.05-0.307,0.05
			c-0.122,0-0.184-0.091-0.184-0.27V12.235z M79.207,18.711c0.328,0.196,0.727,0.38,1.202,0.551
			c0.474,0.172,0.932,0.259,1.373,0.259c0.59,0,1.051-0.13,1.387-0.393c0.334-0.262,0.584-0.613,0.749-1.055
			c0.163-0.441,0.265-0.943,0.306-1.509c0.041-0.564,0.062-1.148,0.062-1.754c0-0.555-0.021-1.099-0.062-1.63
			c-0.041-0.531-0.143-1.006-0.306-1.423c-0.165-0.417-0.406-0.756-0.725-1.019c-0.318-0.261-0.765-0.392-1.336-0.392
			c-0.475,0-0.953,0.139-1.435,0.417c-0.483,0.276-0.887,0.539-1.215,0.785V18.711z"/>
		<path fill="#008F54" d="M92.878,13.682c0.589,0,1.116,0.078,1.582,0.234c0.466,0.156,0.862,0.356,1.19,0.601
			c0.36,0.278,0.663,0.646,0.908,1.104s0.368,0.997,0.368,1.619c0,0.621-0.12,1.169-0.355,1.643
			c-0.238,0.475-0.553,0.859-0.945,1.154c-0.441,0.327-0.915,0.539-1.421,0.636c-0.508,0.098-1.014,0.148-1.521,0.148h-3.287
			c-0.13,0-0.212-0.03-0.245-0.086c-0.032-0.057-0.049-0.127-0.049-0.209V9.341c0-0.164,0.057-0.261,0.172-0.293l1.324-0.32
			c0.065-0.015,0.131-0.023,0.197-0.023c0.081,0,0.13,0.029,0.146,0.085c0.018,0.057,0.026,0.103,0.026,0.135v4.758H92.878z
			 M90.966,19.3h1.692c0.311,0,0.609-0.038,0.896-0.11c0.286-0.074,0.539-0.192,0.76-0.356c0.221-0.164,0.401-0.372,0.539-0.626
			c0.14-0.252,0.209-0.559,0.209-0.918c0-0.638-0.205-1.145-0.614-1.521c-0.409-0.376-1.006-0.564-1.79-0.564h-1.692V19.3z
			 M98.275,9.341c0-0.164,0.057-0.261,0.173-0.293l1.323-0.32c0.065-0.015,0.131-0.023,0.197-0.023c0.082,0,0.131,0.023,0.147,0.073
			c0.016,0.049,0.024,0.09,0.024,0.123v11.625c0,0.132-0.029,0.213-0.085,0.245c-0.057,0.034-0.127,0.05-0.208,0.05h-1.276
			c-0.082,0-0.151-0.017-0.208-0.05c-0.058-0.032-0.086-0.113-0.086-0.245V9.341z"/>
		<path fill="#008F54" d="M107.555,20.526c0,0.082-0.016,0.152-0.048,0.209c-0.033,0.056-0.114,0.086-0.246,0.086h-1.276
			c-0.13,0-0.212-0.03-0.245-0.086c-0.033-0.057-0.049-0.127-0.049-0.209v-9.885h-3.09c-0.131,0-0.213-0.027-0.246-0.085
			c-0.034-0.057-0.049-0.127-0.049-0.208V9.341c0-0.13,0.028-0.211,0.085-0.244c0.058-0.034,0.127-0.049,0.209-0.049h8.389
			c0.195,0,0.289,0.054,0.282,0.159c-0.008,0.107-0.021,0.176-0.037,0.208l-0.318,0.956c-0.034,0.083-0.074,0.148-0.122,0.197
			c-0.05,0.049-0.14,0.074-0.271,0.074h-2.968V20.526z"/>
		<path fill="#008F54" d="M117.097,13.682c0.588,0,1.116,0.078,1.581,0.234c0.467,0.156,0.862,0.356,1.191,0.601
			c0.358,0.278,0.661,0.646,0.907,1.104c0.245,0.458,0.368,0.997,0.368,1.619c0,0.621-0.118,1.169-0.355,1.643
			c-0.238,0.475-0.552,0.859-0.944,1.154c-0.441,0.327-0.916,0.539-1.423,0.636c-0.508,0.098-1.014,0.148-1.521,0.148h-3.287
			c-0.131,0-0.213-0.03-0.245-0.086c-0.033-0.057-0.049-0.127-0.049-0.209V9.341c0-0.164,0.057-0.261,0.172-0.293l1.324-0.32
			c0.065-0.015,0.131-0.023,0.196-0.023c0.082,0,0.131,0.029,0.147,0.085c0.015,0.057,0.024,0.103,0.024,0.135v4.758H117.097z
			 M115.182,19.3h1.693c0.31,0,0.609-0.038,0.896-0.11c0.286-0.074,0.54-0.192,0.761-0.356c0.22-0.164,0.399-0.372,0.538-0.626
			c0.14-0.252,0.209-0.559,0.209-0.918c0-0.638-0.205-1.145-0.613-1.521c-0.409-0.376-1.006-0.564-1.791-0.564h-1.693V19.3z
			 M122.492,9.341c0-0.164,0.057-0.261,0.172-0.293l1.324-0.32c0.065-0.015,0.131-0.023,0.196-0.023c0.081,0,0.13,0.023,0.146,0.073
			c0.017,0.049,0.024,0.09,0.024,0.123v11.625c0,0.132-0.028,0.213-0.085,0.245c-0.058,0.034-0.127,0.05-0.209,0.05h-1.275
			c-0.082,0-0.151-0.017-0.209-0.05c-0.057-0.032-0.085-0.113-0.085-0.245V9.341z"/>
		<path fill="#008F54" d="M127.812,9.341c0-0.164,0.056-0.261,0.171-0.293l0.539-0.123l0.785-0.197
			c0.065-0.015,0.13-0.023,0.196-0.023c0.082,0,0.129,0.029,0.146,0.085c0.017,0.057,0.026,0.103,0.026,0.135v6.647l-0.073,2.404
			h0.073c0.196-0.394,0.359-0.716,0.49-0.97c0.131-0.252,0.242-0.461,0.331-0.625c0.091-0.163,0.161-0.294,0.209-0.393
			c0.049-0.098,0.099-0.188,0.147-0.27l3.753-6.549c0.032-0.064,0.082-0.106,0.146-0.122l1.326-0.32
			c0.065-0.015,0.13-0.023,0.195-0.023c0.082,0,0.132,0.029,0.147,0.085c0.018,0.057,0.025,0.103,0.025,0.135v11.602
			c0,0.132-0.029,0.213-0.087,0.245c-0.058,0.034-0.127,0.05-0.208,0.05h-1.275c-0.083,0-0.152-0.017-0.209-0.05
			c-0.057-0.032-0.085-0.113-0.085-0.245v-6.23l0.073-2.379h-0.073c-0.376,0.735-0.659,1.285-0.847,1.644
			c-0.188,0.36-0.299,0.555-0.331,0.588l-3.754,6.549c-0.032,0.065-0.073,0.103-0.122,0.111c-0.049,0.008-0.098,0.013-0.147,0.013
			h-1.276c-0.131,0-0.213-0.03-0.246-0.086c-0.032-0.057-0.047-0.127-0.047-0.209V9.341z M130.582,4.681
			c0.115,0.556,0.336,0.92,0.663,1.092c0.327,0.17,0.622,0.257,0.883,0.257c0.277,0,0.576-0.087,0.896-0.257
			c0.317-0.172,0.535-0.536,0.648-1.092l0.074-0.369c0.033-0.146,0.089-0.22,0.171-0.22c0.082,0,0.163,0.008,0.246,0.024
			l0.882,0.147c0.033,0,0.082,0.017,0.147,0.049c0.065,0.034,0.105,0.114,0.121,0.246v0.048c0,0.05-0.022,0.172-0.07,0.369
			c-0.214,0.751-0.587,1.332-1.118,1.741c-0.532,0.408-1.199,0.613-1.999,0.613c-0.802,0-1.468-0.205-2-0.613
			c-0.531-0.409-0.903-0.99-1.115-1.741c-0.05-0.197-0.075-0.319-0.075-0.369V4.559c0.016-0.132,0.057-0.212,0.123-0.246
			c0.066-0.032,0.113-0.049,0.148-0.049l0.883-0.147c0.081-0.016,0.162-0.024,0.245-0.024c0.082,0,0.138,0.074,0.17,0.22
			L130.582,4.681z"/>
		<path fill="#008F54" d="M154.571,9.415c0.081,0.033,0.129,0.083,0.146,0.147c0.033,0.065,0.041,0.123,0.023,0.172
			c-0.016,0.048-0.031,0.097-0.049,0.147l-3.017,10.031c-0.278,0.934-0.538,1.771-0.785,2.515c-0.245,0.744-0.481,1.328-0.712,1.753
			c-0.196,0.375-0.417,0.68-0.66,0.908c-0.245,0.23-0.495,0.409-0.748,0.54c-0.255,0.131-0.513,0.221-0.773,0.269
			c-0.262,0.05-0.499,0.075-0.712,0.075c-0.424,0-0.857-0.066-1.298-0.197c-0.263-0.082-0.541-0.188-0.835-0.319
			c-0.295-0.13-0.541-0.261-0.736-0.392c-0.132-0.082-0.199-0.164-0.209-0.246c-0.008-0.081,0.006-0.155,0.038-0.221l0.489-0.981
			c0.017-0.032,0.032-0.062,0.05-0.085c0.016-0.024,0.056-0.037,0.122-0.037s0.132,0.024,0.195,0.073
			c0.066,0.049,0.147,0.107,0.247,0.172c0.164,0.114,0.425,0.261,0.783,0.44c0.359,0.179,0.729,0.27,1.105,0.27
			c0.294,0,0.547-0.066,0.76-0.196c0.441-0.297,0.817-0.923,1.128-1.878l0.515-1.556h-0.883c-0.131,0-0.214-0.03-0.245-0.086
			c-0.032-0.057-0.058-0.103-0.073-0.135l-3.85-10.818c-0.051-0.13-0.047-0.22,0.012-0.269c0.056-0.049,0.103-0.082,0.134-0.099
			l0.932-0.367l0.223-0.099c0.031-0.015,0.081-0.031,0.146-0.048c0.066-0.017,0.115-0.025,0.146-0.025
			c0.033,0,0.076,0.013,0.125,0.038c0.048,0.024,0.089,0.077,0.122,0.159l3.091,9.272c0.146,0.458,0.253,0.813,0.319,1.068
			c0.063,0.253,0.113,0.453,0.145,0.6l0.025,0.098h0.051c0.031-0.229,0.071-0.466,0.12-0.71c0.05-0.246,0.131-0.58,0.246-1.005
			l2.453-9.322c0.033-0.13,0.113-0.196,0.245-0.196c0.1,0,0.179,0.017,0.246,0.049L154.571,9.415z"/>
		<path fill="#008F54" d="M157.409,12.235c0-0.261-0.022-0.58-0.071-0.956c-0.051-0.376-0.214-0.818-0.49-1.325
			c-0.117-0.18-0.172-0.294-0.172-0.343c0-0.064,0.014-0.105,0.036-0.122c0.022-0.016,0.052-0.033,0.085-0.049l1.055-0.662
			c0.065-0.033,0.132-0.053,0.197-0.062c0.063-0.007,0.138,0.029,0.221,0.111c0.147,0.146,0.277,0.343,0.392,0.588
			c0.114,0.246,0.205,0.491,0.271,0.737l0.195-0.148c0.343-0.26,0.793-0.542,1.349-0.846c0.557-0.302,1.176-0.453,1.864-0.453
			c0.31,0,0.695,0.061,1.153,0.184c0.456,0.123,0.898,0.397,1.325,0.821c0.424,0.426,0.788,1.043,1.091,1.853
			c0.302,0.809,0.455,1.91,0.455,3.299s-0.161,2.501-0.48,3.335c-0.317,0.833-0.703,1.471-1.151,1.913
			c-0.451,0.442-0.93,0.728-1.438,0.858c-0.506,0.131-0.955,0.197-1.349,0.197c-0.341,0-0.661-0.033-0.955-0.098
			c-0.295-0.066-0.556-0.147-0.787-0.245c-0.229-0.099-0.421-0.192-0.575-0.283c-0.155-0.089-0.272-0.159-0.354-0.209v5.005
			c0,0.032-0.01,0.08-0.025,0.147c-0.018,0.065-0.074,0.113-0.17,0.146l-1.179,0.294c-0.081,0.034-0.184,0.05-0.306,0.05
			c-0.124,0-0.187-0.091-0.187-0.27V12.235z M159.275,18.711c0.325,0.196,0.727,0.38,1.201,0.551
			c0.475,0.172,0.933,0.259,1.373,0.259c0.59,0,1.051-0.13,1.386-0.393c0.335-0.262,0.586-0.613,0.748-1.055
			c0.165-0.441,0.266-0.943,0.308-1.509c0.041-0.564,0.061-1.148,0.061-1.754c0-0.555-0.02-1.099-0.061-1.63
			c-0.042-0.531-0.143-1.006-0.308-1.423c-0.162-0.417-0.405-0.756-0.723-1.019c-0.319-0.261-0.765-0.392-1.337-0.392
			c-0.475,0-0.951,0.139-1.436,0.417c-0.482,0.276-0.888,0.539-1.213,0.785V18.711z"/>
		<path fill="#008F54" d="M173.434,8.704c0.522,0,1.074,0.094,1.654,0.281c0.581,0.188,1.108,0.52,1.581,0.994
			c0.476,0.474,0.868,1.112,1.181,1.913c0.31,0.801,0.464,1.815,0.464,3.042c0,1.226-0.154,2.241-0.464,3.042
			c-0.313,0.801-0.705,1.439-1.181,1.913c-0.473,0.475-1,0.806-1.581,0.993c-0.58,0.188-1.132,0.282-1.654,0.282
			c-0.525,0-1.071-0.095-1.646-0.282c-0.571-0.187-1.098-0.519-1.581-0.993c-0.482-0.474-0.879-1.112-1.191-1.913
			c-0.309-0.802-0.463-1.817-0.463-3.042c0-1.227,0.154-2.24,0.463-3.042c0.313-0.801,0.709-1.439,1.191-1.913
			c0.483-0.474,1.01-0.806,1.581-0.994C172.362,8.798,172.908,8.704,173.434,8.704z M173.434,10.224
			c-0.688,0-1.223,0.184-1.606,0.552c-0.384,0.369-0.673,0.81-0.86,1.325c-0.188,0.516-0.302,1.034-0.343,1.558
			s-0.061,0.949-0.061,1.275c0,0.311,0.02,0.732,0.061,1.264s0.154,1.055,0.343,1.57c0.188,0.515,0.477,0.956,0.86,1.324
			c0.384,0.368,0.919,0.552,1.606,0.552c0.686,0,1.223-0.184,1.606-0.552c0.384-0.368,0.67-0.809,0.857-1.324
			c0.188-0.516,0.303-1.039,0.343-1.57c0.041-0.532,0.063-0.953,0.063-1.264c0-0.326-0.021-0.752-0.063-1.275
			c-0.04-0.523-0.154-1.042-0.343-1.558c-0.188-0.515-0.474-0.956-0.857-1.325C174.656,10.408,174.119,10.224,173.434,10.224z"/>
		<path fill="#008F54" d="M182.971,20.625c0,0.016-0.012,0.053-0.037,0.11c-0.025,0.056-0.104,0.086-0.235,0.086h-1.323
			c-0.131,0-0.207-0.03-0.232-0.086c-0.024-0.057-0.036-0.094-0.036-0.11V9.341c0-0.164,0.056-0.261,0.171-0.293l0.491-0.123
			l0.834-0.197c0.032-0.015,0.088-0.023,0.17-0.023h0.025c0.114,0,0.173,0.065,0.173,0.196v0.024v5.028h1.056
			c0.439,0,0.774-0.105,1.004-0.318c0.229-0.213,0.4-0.548,0.515-1.007l0.317-1.274c0.117-0.441,0.283-0.896,0.505-1.362
			c0.221-0.466,0.601-0.814,1.141-1.043c0.163-0.064,0.366-0.122,0.614-0.171c0.244-0.05,0.449-0.073,0.612-0.073
			c0.064,0,0.126,0.011,0.184,0.036c0.057,0.024,0.102,0.078,0.135,0.16l0.269,1.103c0.033,0.132,0.01,0.209-0.073,0.234
			c-0.08,0.025-0.163,0.045-0.244,0.062l-0.343,0.049c-0.131,0.032-0.262,0.068-0.394,0.109c-0.13,0.042-0.254,0.135-0.368,0.282
			c-0.031,0.033-0.078,0.114-0.134,0.245c-0.058,0.131-0.136,0.369-0.234,0.711l-0.27,0.981c-0.082,0.328-0.229,0.687-0.442,1.079
			c-0.212,0.392-0.604,0.679-1.175,0.858c0.556,0.147,0.943,0.389,1.163,0.723c0.222,0.335,0.372,0.618,0.454,0.847l0.76,2.355
			c0.033,0.098,0.088,0.217,0.16,0.354c0.074,0.141,0.151,0.25,0.233,0.331c0.115,0.099,0.353,0.181,0.711,0.246l0.297,0.05
			c0.111,0.016,0.201,0.037,0.267,0.061c0.066,0.025,0.074,0.119,0.025,0.282l-0.319,1.104c-0.031,0.099-0.082,0.155-0.147,0.172
			c-0.064,0.017-0.13,0.025-0.195,0.025c-0.376,0-0.687-0.025-0.931-0.074c-0.248-0.047-0.434-0.106-0.566-0.171
			c-0.505-0.212-0.842-0.523-1.005-0.932c-0.162-0.41-0.327-0.9-0.49-1.472l-0.49-1.742c-0.164-0.573-0.364-0.932-0.603-1.079
			c-0.237-0.148-0.543-0.222-0.919-0.222h-1.078V20.625z"/>
	</g>
	<g>
		<path fill="#008F54" d="M46.639,51.397c0,0.148-0.032,0.296-0.096,0.435c-0.064,0.14-0.247,0.209-0.546,0.209h-3.088
			c-0.3,0-0.482-0.069-0.547-0.209c-0.064-0.139-0.097-0.286-0.097-0.435V30.65c0-0.301,0.069-0.482,0.209-0.547
			c0.14-0.064,0.285-0.097,0.435-0.097h13.253c0.3,0,0.482,0.069,0.546,0.21c0.065,0.139,0.096,0.285,0.096,0.434v20.747
			c0,0.302-0.069,0.482-0.208,0.546c-0.14,0.065-0.285,0.098-0.434,0.098h-3.089c-0.3,0-0.481-0.069-0.545-0.209
			c-0.065-0.139-0.097-0.286-0.097-0.435V33.481h-5.79V51.397z"/>
		<path fill="#008F54" d="M64.271,45.189c0,1.179,0.258,2.146,0.772,2.895c0.516,0.751,1.437,1.126,2.767,1.126
			c0.75,0,1.399-0.086,1.946-0.258c0.546-0.171,0.97-0.331,1.271-0.481c0.429-0.214,0.718-0.322,0.869-0.322
			c0.171,0,0.29,0.086,0.354,0.256l0.804,1.899c0.064,0.128,0.097,0.226,0.097,0.29c0,0.172-0.054,0.311-0.161,0.418
			c-0.108,0.107-0.225,0.204-0.354,0.29c-0.601,0.408-1.378,0.724-2.333,0.948c-0.954,0.225-1.88,0.338-2.782,0.338
			c-1.716,0-3.066-0.317-4.052-0.948c-0.988-0.634-1.722-1.385-2.205-2.251c-0.482-0.869-0.783-1.76-0.9-2.672
			c-0.118-0.911-0.177-1.645-0.177-2.202c0-1.266,0.155-2.445,0.466-3.541c0.311-1.091,0.768-2.036,1.368-2.829
			c0.601-0.792,1.34-1.414,2.22-1.865c0.878-0.449,1.876-0.675,2.992-0.675c1.007,0,1.865,0.149,2.573,0.45
			c0.707,0.302,1.297,0.696,1.768,1.189c0.471,0.494,0.841,1.052,1.11,1.672c0.268,0.623,0.477,1.245,0.626,1.865
			c0.172,0.689,0.274,1.315,0.307,1.883c0.032,0.568,0.048,1.067,0.048,1.497c0,0.493-0.07,0.786-0.21,0.885
			c-0.14,0.096-0.315,0.144-0.53,0.144H64.271z M69.322,42.198c0.021-0.429,0.016-0.777-0.017-1.045
			c-0.031-0.268-0.069-0.466-0.112-0.596c-0.128-0.621-0.364-1.104-0.708-1.447c-0.343-0.343-0.836-0.515-1.479-0.515
			c-0.922,0-1.582,0.326-1.979,0.979c-0.396,0.655-0.648,1.53-0.756,2.623H69.322z"/>
		<path fill="#008F54" d="M80.876,57.637c0,0.15-0.022,0.27-0.065,0.355c-0.043,0.085-0.225,0.161-0.547,0.224l-2.958,0.611
			c-0.043,0.022-0.108,0.032-0.193,0.032c-0.086,0-0.161-0.021-0.225-0.064c-0.065-0.043-0.096-0.129-0.096-0.257s0-0.246,0-0.354
			V41.876c0-1.393-0.055-2.406-0.162-3.04c-0.107-0.632-0.214-1.119-0.321-1.462c-0.086-0.278-0.128-0.452-0.128-0.517
			c0-0.106,0.037-0.181,0.112-0.224c0.075-0.043,0.156-0.086,0.242-0.13l2.444-0.804c0.257-0.085,0.478-0.111,0.66-0.08
			c0.182,0.032,0.358,0.296,0.531,0.787c0.064,0.152,0.117,0.298,0.161,0.434c0.042,0.141,0.085,0.286,0.128,0.436
			c0.686-0.643,1.367-1.082,2.043-1.318c0.675-0.236,1.334-0.354,1.978-0.354c0.814,0,1.56,0.128,2.235,0.386
			c0.676,0.257,1.292,0.794,1.85,1.606c0.322,0.475,0.589,0.978,0.804,1.514c0.215,0.535,0.375,1.087,0.482,1.656
			c0.108,0.566,0.182,1.127,0.225,1.672c0.043,0.547,0.064,1.058,0.064,1.529c0,1.007-0.081,2.08-0.242,3.216
			c-0.161,1.137-0.616,2.209-1.367,3.218c-0.557,0.75-1.195,1.303-1.914,1.656s-1.624,0.53-2.718,0.53
			c-0.322,0-0.719-0.043-1.19-0.128c-0.472-0.087-1.083-0.323-1.833-0.709V57.637z M80.876,48.759
			c0.45,0.281,0.879,0.451,1.287,0.517c0.408,0.063,0.75,0.096,1.029,0.096c0.365,0,0.772-0.08,1.223-0.241
			c0.45-0.16,0.825-0.531,1.126-1.11c0.042-0.064,0.091-0.178,0.145-0.338c0.053-0.16,0.107-0.396,0.161-0.706
			c0.053-0.313,0.101-0.719,0.146-1.224c0.042-0.502,0.063-1.131,0.063-1.881c0-0.686-0.058-1.398-0.177-2.141
			c-0.118-0.739-0.295-1.323-0.53-1.752c-0.408-0.772-1.073-1.158-1.995-1.158c-0.515,0-0.981,0.124-1.399,0.37
			c-0.418,0.248-0.777,0.53-1.078,0.852V48.759z"/>
		<path fill="#008F54" d="M93.881,52.041c-0.172,0-0.29-0.021-0.354-0.063c-0.064-0.044-0.097-0.173-0.097-0.388V36.602
			c0-0.173,0.021-0.29,0.065-0.354c0.042-0.064,0.171-0.097,0.386-0.097h4.921c0.943,0,1.893,0.032,2.847,0.097
			c0.955,0.064,1.743,0.313,2.364,0.739c0.364,0.258,0.718,0.64,1.062,1.143c0.343,0.505,0.516,1.151,0.516,1.947
			c0,0.814-0.227,1.543-0.677,2.186c-0.449,0.643-1.083,1.094-1.897,1.35c0.879,0.174,1.613,0.593,2.203,1.258
			c0.589,0.663,0.885,1.554,0.885,2.669c0,0.558-0.118,1.158-0.354,1.801c-0.237,0.645-0.699,1.19-1.384,1.641
			c-0.772,0.515-1.613,0.819-2.525,0.917c-0.912,0.096-1.85,0.145-2.815,0.145H93.881z M97.515,42.424h1.706
			c0.513,0,0.921-0.065,1.222-0.193c0.299-0.13,0.53-0.284,0.691-0.467c0.16-0.183,0.262-0.375,0.305-0.58
			c0.043-0.203,0.065-0.368,0.065-0.496c0-0.365-0.076-0.65-0.225-0.854c-0.151-0.205-0.344-0.36-0.58-0.466
			c-0.236-0.109-0.493-0.171-0.772-0.193c-0.278-0.021-0.546-0.033-0.804-0.033h-1.608V42.424z M97.515,49.049h1.769
			c0.3,0,0.612-0.021,0.933-0.063s0.617-0.129,0.885-0.259c0.268-0.128,0.487-0.315,0.659-0.562
			c0.172-0.246,0.257-0.585,0.257-1.014c0-0.45-0.096-0.798-0.289-1.046c-0.193-0.244-0.419-0.428-0.675-0.547
			c-0.258-0.117-0.521-0.188-0.789-0.209c-0.269-0.022-0.478-0.032-0.627-0.032h-2.123V49.049z"/>
		<path fill="#008F54" d="M122.57,44.097c0,1.502-0.199,2.793-0.595,3.875c-0.397,1.084-0.922,1.962-1.576,2.639
			c-0.655,0.674-1.4,1.172-2.235,1.495c-0.838,0.322-1.695,0.482-2.574,0.482c-0.88,0-1.737-0.16-2.573-0.482
			c-0.836-0.323-1.581-0.821-2.236-1.495c-0.653-0.677-1.179-1.555-1.576-2.639c-0.397-1.082-0.594-2.373-0.594-3.875
			c0-1.523,0.197-2.821,0.594-3.893c0.397-1.073,0.922-1.945,1.576-2.623c0.655-0.674,1.4-1.174,2.236-1.496
			c0.836-0.32,1.693-0.48,2.573-0.48c0.879,0,1.736,0.16,2.574,0.48c0.835,0.322,1.58,0.822,2.235,1.496
			c0.653,0.678,1.179,1.55,1.576,2.623C122.371,41.275,122.57,42.573,122.57,44.097z M115.589,49.371
			c0.622,0,1.11-0.161,1.463-0.482c0.355-0.322,0.616-0.735,0.788-1.238c0.172-0.504,0.279-1.072,0.323-1.704
			c0.042-0.635,0.063-1.249,0.063-1.85c0-0.622-0.022-1.245-0.063-1.866c-0.044-0.623-0.151-1.185-0.323-1.688
			c-0.171-0.505-0.433-0.916-0.788-1.239c-0.354-0.321-0.842-0.482-1.463-0.482c-0.623,0-1.109,0.161-1.464,0.482
			c-0.353,0.323-0.616,0.734-0.788,1.239c-0.171,0.504-0.279,1.065-0.321,1.688c-0.043,0.621-0.063,1.244-0.063,1.866
			c0,0.601,0.021,1.215,0.063,1.85c0.042,0.632,0.15,1.2,0.321,1.704c0.172,0.503,0.435,0.916,0.788,1.238
			C114.48,49.21,114.967,49.371,115.589,49.371z"/>
		<path fill="#008F54" d="M129.055,45.189c0,1.179,0.257,2.146,0.771,2.895c0.516,0.751,1.437,1.126,2.767,1.126
			c0.75,0,1.4-0.086,1.946-0.258c0.547-0.171,0.972-0.331,1.271-0.481c0.429-0.214,0.719-0.322,0.867-0.322
			c0.174,0,0.291,0.086,0.355,0.256l0.804,1.899c0.064,0.128,0.097,0.226,0.097,0.29c0,0.172-0.054,0.311-0.162,0.418
			c-0.107,0.107-0.225,0.204-0.353,0.29c-0.601,0.408-1.378,0.724-2.333,0.948c-0.954,0.225-1.881,0.338-2.781,0.338
			c-1.717,0-3.067-0.317-4.054-0.948c-0.986-0.634-1.721-1.385-2.204-2.251c-0.481-0.869-0.782-1.76-0.899-2.672
			c-0.12-0.911-0.177-1.645-0.177-2.202c0-1.266,0.155-2.445,0.466-3.541c0.311-1.091,0.767-2.036,1.367-2.829
			c0.601-0.792,1.34-1.414,2.219-1.865c0.88-0.449,1.876-0.675,2.991-0.675c1.009,0,1.866,0.149,2.573,0.45
			c0.708,0.302,1.299,0.696,1.77,1.189c0.474,0.494,0.842,1.052,1.11,1.672c0.27,0.623,0.477,1.245,0.628,1.865
			c0.17,0.689,0.273,1.315,0.304,1.883c0.033,0.568,0.049,1.067,0.049,1.497c0,0.493-0.07,0.786-0.209,0.885
			c-0.14,0.096-0.314,0.144-0.529,0.144H129.055z M134.104,42.198c0.022-0.429,0.016-0.777-0.017-1.045
			c-0.031-0.268-0.069-0.466-0.113-0.596c-0.127-0.621-0.364-1.104-0.707-1.447c-0.343-0.343-0.836-0.515-1.48-0.515
			c-0.922,0-1.581,0.326-1.978,0.979c-0.396,0.655-0.648,1.53-0.755,2.623H134.104z"/>
		<path fill="#008F54" d="M159.322,39.947c-0.043,0.106-0.119,0.16-0.226,0.16s-0.23-0.054-0.369-0.16
			c-0.14-0.108-0.327-0.247-0.564-0.42c-0.343-0.234-0.681-0.411-1.014-0.529c-0.331-0.119-0.711-0.178-1.141-0.178
			c-0.622,0-1.13,0.141-1.527,0.418c-0.397,0.278-0.715,0.645-0.949,1.094c-0.106,0.215-0.242,0.617-0.403,1.205
			c-0.161,0.592-0.239,1.53-0.239,2.815c0,0.986,0.057,1.753,0.176,2.3c0.118,0.547,0.261,0.971,0.435,1.272
			c0.214,0.364,0.524,0.696,0.934,0.997c0.406,0.3,0.953,0.449,1.639,0.449c0.429,0,0.799-0.054,1.11-0.161s0.618-0.245,0.916-0.419
			c0.194-0.104,0.374-0.219,0.547-0.338c0.172-0.117,0.313-0.176,0.419-0.176s0.182,0.054,0.225,0.161l0.836,2.123
			c0.021,0.043,0.043,0.097,0.064,0.161c0.021,0.063,0.033,0.116,0.033,0.16c0,0.129-0.076,0.269-0.227,0.419
			c-0.149,0.149-0.343,0.288-0.577,0.418c-0.537,0.301-1.126,0.519-1.771,0.659c-0.644,0.139-1.276,0.209-1.896,0.209
			c-0.923,0-1.819-0.135-2.688-0.403c-0.868-0.268-1.636-0.718-2.298-1.351c-0.667-0.632-1.202-1.467-1.61-2.507
			c-0.406-1.041-0.61-2.334-0.61-3.877c0-1.608,0.208-2.97,0.626-4.085s0.971-2.028,1.657-2.734
			c0.686-0.709,1.479-1.224,2.381-1.546c0.898-0.32,1.832-0.48,2.798-0.48c0.88,0,1.64,0.111,2.284,0.337
			c0.644,0.227,1.18,0.477,1.606,0.756c0.302,0.194,0.494,0.359,0.579,0.499c0.087,0.141,0.13,0.263,0.13,0.369
			c0,0.087-0.031,0.183-0.098,0.29L159.322,39.947z"/>
		<path fill="#008F54" d="M165.958,45.189c0,1.179,0.256,2.146,0.771,2.895c0.514,0.751,1.436,1.126,2.767,1.126
			c0.75,0,1.399-0.086,1.945-0.258c0.547-0.171,0.972-0.331,1.271-0.481c0.428-0.214,0.719-0.322,0.867-0.322
			c0.173,0,0.289,0.086,0.354,0.256l0.805,1.899c0.064,0.128,0.097,0.226,0.097,0.29c0,0.172-0.054,0.311-0.16,0.418
			c-0.109,0.107-0.227,0.204-0.355,0.29c-0.6,0.408-1.377,0.724-2.332,0.948c-0.953,0.225-1.882,0.338-2.783,0.338
			c-1.716,0-3.066-0.317-4.051-0.948c-0.988-0.634-1.721-1.385-2.205-2.251c-0.482-0.869-0.782-1.76-0.899-2.672
			c-0.118-0.911-0.177-1.645-0.177-2.202c0-1.266,0.153-2.445,0.466-3.541c0.31-1.091,0.766-2.036,1.368-2.829
			c0.598-0.792,1.338-1.414,2.219-1.865c0.877-0.449,1.875-0.675,2.991-0.675c1.008,0,1.863,0.149,2.572,0.45
			c0.708,0.302,1.297,0.696,1.77,1.189c0.474,0.494,0.842,1.052,1.11,1.672c0.268,0.623,0.479,1.245,0.628,1.865
			c0.17,0.689,0.272,1.315,0.304,1.883c0.033,0.568,0.049,1.067,0.049,1.497c0,0.493-0.07,0.786-0.209,0.885
			c-0.14,0.096-0.316,0.144-0.531,0.144H165.958z M171.008,42.198c0.021-0.429,0.016-0.777-0.016-1.045
			c-0.033-0.268-0.07-0.466-0.112-0.596c-0.131-0.621-0.366-1.104-0.71-1.447c-0.341-0.343-0.836-0.515-1.479-0.515
			c-0.922,0-1.582,0.326-1.978,0.979c-0.397,0.655-0.651,1.53-0.756,2.623H171.008z"/>
		<path fill="#008F54" d="M187.151,36.826c0-0.149,0.021-0.267,0.063-0.354c0.043-0.084,0.228-0.16,0.547-0.225l2.961-0.61
			c0.128-0.043,0.247-0.048,0.353-0.017c0.108,0.032,0.16,0.167,0.16,0.403V51.59c0,0.173-0.019,0.29-0.062,0.354
			c-0.044,0.065-0.173,0.098-0.388,0.098h-3.184c-0.172,0-0.29-0.021-0.354-0.063c-0.064-0.044-0.097-0.173-0.097-0.388v-6.272
			h-4.633v6.272c0,0.173-0.021,0.29-0.064,0.354c-0.042,0.065-0.17,0.098-0.386,0.098h-3.183c-0.301,0-0.451-0.15-0.451-0.451
			V36.826c0-0.171,0.031-0.301,0.099-0.387c0.062-0.083,0.374-0.181,0.932-0.289l2.54-0.514c0.128-0.043,0.249-0.048,0.354-0.017
			c0.106,0.032,0.159,0.167,0.159,0.403v6.077h4.633V36.826z"/>
		<path fill="#008F54" d="M201.796,51.59c0,0.173-0.021,0.29-0.063,0.354c-0.043,0.065-0.174,0.098-0.386,0.098h-3.185
			c-0.172,0-0.29-0.021-0.354-0.063c-0.063-0.044-0.096-0.173-0.096-0.388V39.368h-3.669c-0.298,0-0.448-0.15-0.448-0.452v-2.314
			c0-0.301,0.15-0.451,0.448-0.451h11.742c0.343,0,0.521,0.065,0.53,0.194c0.01,0.127-0.006,0.277-0.046,0.449l-0.453,2.122
			c-0.043,0.194-0.11,0.318-0.208,0.371c-0.096,0.054-0.188,0.081-0.274,0.081h-3.538V51.59z"/>
		<path fill="#008F54" d="M216.665,52.041c-0.217,0-0.346-0.032-0.386-0.098c-0.045-0.063-0.066-0.181-0.066-0.354v-5.468h-1.511
			c-0.686,0-1.138,0.129-1.351,0.387c-0.216,0.256-0.399,0.655-0.549,1.19l-0.513,1.833c-0.107,0.429-0.264,0.848-0.468,1.254
			c-0.203,0.407-0.519,0.76-0.949,1.061c-0.429,0.3-0.926,0.5-1.496,0.597c-0.567,0.096-1.034,0.145-1.398,0.145
			c-0.344,0-0.547-0.055-0.61-0.16c-0.064-0.11-0.118-0.216-0.16-0.322l-0.58-2.058c-0.085-0.302-0.075-0.488,0.032-0.564
			c0.107-0.075,0.214-0.122,0.32-0.145l0.643-0.129c0.347-0.064,0.586-0.187,0.726-0.369s0.264-0.468,0.37-0.853l0.194-0.708
			c0.17-0.622,0.402-1.142,0.689-1.56c0.29-0.42,0.725-0.713,1.304-0.885v-0.065c-0.386-0.107-0.768-0.267-1.142-0.481
			c-0.376-0.215-0.682-0.45-0.916-0.708c-0.321-0.363-0.565-0.803-0.725-1.319c-0.16-0.515-0.24-1.007-0.24-1.48
			c0-0.62,0.131-1.254,0.399-1.896c0.269-0.644,0.682-1.178,1.239-1.608c0.344-0.258,0.714-0.461,1.11-0.611
			c0.397-0.149,0.788-0.262,1.174-0.337s0.744-0.124,1.078-0.146c0.333-0.021,0.604-0.032,0.819-0.032h6.145
			c0.172,0,0.29,0.021,0.354,0.065c0.064,0.043,0.094,0.172,0.094,0.386V51.59c0,0.215-0.029,0.344-0.094,0.388
			c-0.064,0.043-0.183,0.063-0.354,0.063H216.665z M216.213,39.206h-1.898c-0.514,0-0.926,0.07-1.235,0.211
			c-0.313,0.139-0.55,0.31-0.708,0.514c-0.161,0.204-0.27,0.413-0.323,0.627c-0.055,0.214-0.08,0.407-0.08,0.58
			c0,0.449,0.096,0.803,0.289,1.061s0.423,0.451,0.691,0.58c0.27,0.126,0.54,0.207,0.822,0.24c0.276,0.031,0.513,0.049,0.706,0.049
			h1.736V39.206z"/>
		<path fill="#008F54" d="M226.729,39.046c0.921-1.802,2.487-2.701,4.697-2.701c0.941,0,1.806,0.181,2.588,0.547
			c0.783,0.363,1.451,0.895,2.009,1.591c0.559,0.697,0.987,1.545,1.287,2.541c0.303,0.998,0.451,2.13,0.451,3.395
			c0,1.395-0.191,2.604-0.579,3.634c-0.386,1.029-0.904,1.882-1.56,2.559c-0.655,0.674-1.396,1.172-2.236,1.495
			c-0.836,0.322-1.703,0.482-2.604,0.482c-0.366,0-0.811-0.039-1.335-0.113c-0.527-0.074-1.073-0.247-1.642-0.514
			c-0.567-0.268-1.125-0.654-1.672-1.159c-0.547-0.503-1.025-1.173-1.432-2.011c-0.494-1.028-0.793-2.117-0.901-3.264
			c-0.107-1.147-0.16-2.246-0.16-3.297c0-1.201,0.042-2.338,0.129-3.41c0.086-1.072,0.3-2.058,0.644-2.959
			c0.364-1.029,0.96-2.037,1.784-3.024c0.826-0.985,1.86-1.756,3.104-2.314l6.047-2.734c0.106-0.043,0.273-0.096,0.498-0.162
			c0.225-0.064,0.392,0.032,0.5,0.29l1.093,2.38c0.043,0.064,0.06,0.183,0.049,0.354c-0.012,0.172-0.167,0.32-0.468,0.45
			l-6.69,2.862c-0.213,0.087-0.513,0.236-0.9,0.45c-0.386,0.216-0.771,0.509-1.157,0.885c-0.388,0.377-0.742,0.843-1.062,1.399
			c-0.321,0.558-0.515,1.222-0.579,1.995l-0.033,0.354H226.729z M230.782,49.371c0.62,0,1.108-0.161,1.462-0.482
			c0.354-0.322,0.617-0.73,0.789-1.223c0.171-0.493,0.279-1.028,0.321-1.608c0.043-0.578,0.064-1.126,0.064-1.64
			c0-0.494-0.021-1.024-0.064-1.592c-0.042-0.568-0.15-1.096-0.321-1.576c-0.172-0.483-0.435-0.885-0.789-1.208
			c-0.354-0.321-0.842-0.482-1.462-0.482c-0.622,0-1.11,0.161-1.465,0.482c-0.354,0.323-0.616,0.725-0.787,1.208
			c-0.172,0.48-0.279,1.008-0.323,1.576c-0.043,0.567-0.063,1.098-0.063,1.592c0,0.514,0.02,1.062,0.063,1.64
			c0.044,0.58,0.151,1.115,0.323,1.608c0.171,0.492,0.433,0.9,0.787,1.223C229.672,49.21,230.16,49.371,230.782,49.371z"/>
		<path fill="#008F54" d="M244.961,57.637c0,0.15-0.023,0.27-0.066,0.355c-0.041,0.085-0.224,0.161-0.546,0.224l-2.958,0.611
			c-0.043,0.022-0.109,0.032-0.194,0.032c-0.087,0-0.16-0.021-0.225-0.064c-0.066-0.043-0.097-0.129-0.097-0.257s0-0.246,0-0.354
			V41.876c0-1.393-0.055-2.406-0.161-3.04c-0.106-0.632-0.215-1.119-0.321-1.462c-0.085-0.278-0.13-0.452-0.13-0.517
			c0-0.106,0.039-0.181,0.114-0.224c0.073-0.043,0.154-0.086,0.24-0.13l2.445-0.804c0.258-0.085,0.477-0.111,0.659-0.08
			c0.182,0.032,0.36,0.296,0.53,0.787c0.065,0.152,0.118,0.298,0.161,0.434c0.043,0.141,0.085,0.286,0.129,0.436
			c0.687-0.643,1.366-1.082,2.041-1.318c0.677-0.236,1.335-0.354,1.979-0.354c0.815,0,1.562,0.128,2.235,0.386
			c0.677,0.257,1.292,0.794,1.851,1.606c0.322,0.475,0.589,0.978,0.804,1.514c0.216,0.535,0.376,1.087,0.483,1.656
			c0.106,0.566,0.182,1.127,0.224,1.672c0.043,0.547,0.064,1.058,0.064,1.529c0,1.007-0.08,2.08-0.24,3.216
			c-0.161,1.137-0.615,2.209-1.367,3.218c-0.56,0.75-1.196,1.303-1.915,1.656c-0.717,0.354-1.622,0.53-2.717,0.53
			c-0.321,0-0.718-0.043-1.189-0.128c-0.473-0.087-1.083-0.323-1.833-0.709V57.637z M244.961,48.759
			c0.45,0.281,0.878,0.451,1.285,0.517c0.408,0.063,0.749,0.096,1.03,0.096c0.364,0,0.771-0.08,1.223-0.241
			c0.45-0.16,0.823-0.531,1.126-1.11c0.041-0.064,0.089-0.178,0.144-0.338c0.054-0.16,0.108-0.396,0.161-0.706
			c0.054-0.313,0.1-0.719,0.143-1.224c0.045-0.502,0.066-1.131,0.066-1.881c0-0.686-0.059-1.398-0.176-2.141
			c-0.119-0.739-0.297-1.323-0.532-1.752c-0.408-0.772-1.073-1.158-1.993-1.158c-0.515,0-0.982,0.124-1.399,0.37
			c-0.418,0.248-0.779,0.53-1.077,0.852V48.759z"/>
		<path fill="#008F54" d="M265.918,52.041c-0.215,0-0.343-0.032-0.386-0.098c-0.043-0.063-0.063-0.181-0.063-0.354v-5.468h-1.511
			c-0.688,0-1.138,0.129-1.353,0.387c-0.214,0.256-0.397,0.655-0.547,1.19l-0.516,1.833c-0.104,0.429-0.261,0.848-0.465,1.254
			c-0.203,0.407-0.521,0.76-0.949,1.061c-0.429,0.3-0.928,0.5-1.496,0.597c-0.567,0.096-1.033,0.145-1.399,0.145
			c-0.343,0-0.546-0.055-0.61-0.16c-0.065-0.11-0.118-0.216-0.16-0.322l-0.58-2.058c-0.086-0.302-0.074-0.488,0.033-0.564
			c0.107-0.075,0.214-0.122,0.319-0.145l0.644-0.129c0.343-0.064,0.586-0.187,0.725-0.369c0.14-0.183,0.265-0.468,0.37-0.853
			l0.194-0.708c0.17-0.622,0.4-1.142,0.69-1.56c0.29-0.42,0.724-0.713,1.304-0.885v-0.065c-0.386-0.107-0.768-0.267-1.142-0.481
			c-0.376-0.215-0.683-0.45-0.918-0.708c-0.322-0.363-0.563-0.803-0.724-1.319c-0.163-0.515-0.241-1.007-0.241-1.48
			c0-0.62,0.133-1.254,0.401-1.896c0.269-0.644,0.681-1.178,1.239-1.608c0.343-0.258,0.713-0.461,1.11-0.611
			c0.395-0.149,0.788-0.262,1.174-0.337c0.384-0.075,0.744-0.124,1.077-0.146c0.331-0.021,0.604-0.032,0.82-0.032h6.144
			c0.172,0,0.291,0.021,0.355,0.065c0.061,0.043,0.094,0.172,0.094,0.386V51.59c0,0.215-0.033,0.344-0.094,0.388
			c-0.064,0.043-0.184,0.063-0.355,0.063H265.918z M265.469,39.206h-1.898c-0.515,0-0.926,0.07-1.239,0.211
			c-0.31,0.139-0.546,0.31-0.707,0.514c-0.16,0.204-0.27,0.413-0.321,0.627s-0.079,0.407-0.079,0.58
			c0,0.449,0.095,0.803,0.288,1.061c0.191,0.258,0.423,0.451,0.692,0.58c0.267,0.126,0.54,0.207,0.819,0.24
			c0.279,0.031,0.514,0.049,0.709,0.049h1.736V39.206z"/>
	</g>
	<g>
		<path fill="#008F54" d="M2.774,11.779c8.22-0.78,16.8-3.589,25.324-7.779V2.501C19.66,5.066,11.208,5.799,2.774,6.28V11.779z"/>
		<path fill="#008F54" d="M5.333,0.79v3.9c8.537-0.245,15.482-1.41,22.765-3.173V0C19.437,1.075,11.575,1.419,5.333,0.79z"/>
		<path fill="#008F54" d="M28.098,4.994C19.178,9.908,9.453,13.06,0,13.825v21.053c3.399-0.286,6.28-0.589,10.851-2.258
			c0,9.124,0,18.399,0,27.532h0.06c5.669-1.365,11.44-3.556,17.187-6.372V4.994z"/>
	</g>
</g>
</svg>
